<!DOCTYPE svg PUBLIC "-//W3C//DTD SVG 20010904//EN" "http://www.w3.org/TR/2001/REC-SVG-20010904/DTD/svg10.dtd">
<svg version="1.0" xmlns="http://www.w3.org/2000/svg" width="797px" height="797px" viewBox="0 0 7970 7970" preserveAspectRatio="xMidYMid meet">
<g id="layer101" fill="#FFFFFF" stroke="none">
 <path d="M1024 7888 c24 -46 66 -121 94 -168 29 -47 52 -89 52 -93 0 -4 31 -61 70 -126 38 -64 72 -126 76 -137 4 -10 38 -71 75 -135 38 -63 71 -124 75 -135 4 -10 40 -75 80 -144 40 -69 75 -135 79 -148 l7 -23 -359 6 c-197 3 -373 8 -390 11 l-33 5 0 -366 0 -365 589 0 589 0 21 -34 c12 -18 21 -39 21 -45 0 -7 34 -71 75 -142 41 -71 75 -132 75 -137 0 -4 33 -61 73 -127 40 -66 76 -129 80 -139 4 -10 36 -67 72 -126 35 -58 68 -118 74 -132 5 -14 27 -54 48 -89 47 -77 82 -145 156 -304 269 -581 306 -1069 126 -1656 -16 -53 -29 -102 -29 -110 0 -13 -126 -279 -167 -354 -36 -64 -166 -253 -221 -318 -139 -168 -316 -336 -452 -433 -30 -21 -57 -41 -60 -45 -7 -8 -152 -96 -240 -144 -41 -23 -88 -49 -105 -58 -173 -97 -510 -194 -815 -236 -204 -28 -319 -34 -447 -22 -122 11 -241 26 -291 37 l-22 4 2 -367 3 -368 45 -7 c25 -3 124 -12 221 -19 272 -19 579 9 938 86 298 63 751 244 974 388 28 19 77 49 107 67 30 18 57 35 60 39 3 3 32 24 65 46 33 22 67 47 75 55 9 8 43 35 75 59 33 24 69 53 81 65 12 12 50 46 85 76 100 86 309 317 374 415 19 28 55 79 81 115 26 36 57 83 69 105 12 22 50 85 83 140 34 55 62 106 62 113 0 7 31 75 70 152 38 76 74 156 79 177 14 53 114 323 121 323 3 0 15 -21 28 -48 72 -147 257 -504 290 -560 18 -29 32 -57 32 -63 0 -5 34 -69 75 -140 41 -72 75 -135 75 -141 0 -5 32 -63 70 -128 39 -65 74 -130 79 -143 5 -13 39 -74 75 -135 36 -61 71 -123 76 -137 6 -14 41 -80 80 -145 38 -65 70 -123 70 -128 0 -6 34 -67 75 -137 41 -69 75 -131 75 -136 0 -5 32 -61 70 -124 39 -63 73 -122 77 -132 8 -22 114 -163 137 -182 9 -7 16 -19 16 -25 0 -17 196 -210 260 -255 70 -50 275 -160 360 -194 165 -65 357 -99 555 -100 152 0 258 14 411 53 106 28 301 105 354 141 14 9 46 28 72 43 26 14 53 32 60 39 7 7 36 28 63 47 56 38 245 218 245 233 0 6 15 28 33 51 46 57 117 163 117 175 0 5 16 41 35 79 80 161 113 286 121 468 8 202 -6 357 -45 474 -49 146 -127 307 -190 390 -30 41 -65 89 -77 106 -31 45 -178 184 -253 239 -56 42 -206 135 -217 135 -2 0 -35 15 -72 34 -377 183 -848 192 -1242 25 -170 -73 -365 -196 -474 -299 -26 -25 -54 -48 -61 -52 -7 -5 -43 -44 -79 -88 -37 -44 -71 -80 -77 -80 -5 0 -36 55 -68 122 -32 68 -79 160 -104 205 -26 45 -47 87 -47 92 0 6 -32 65 -70 131 -39 67 -75 133 -81 147 -5 15 -38 74 -73 132 -34 58 -72 124 -83 146 -10 22 -47 85 -80 140 -95 156 -107 141 119 148 357 10 611 79 909 247 164 92 309 219 457 398 94 114 203 305 240 422 48 150 122 473 122 531 0 18 -10 19 -382 19 l-383 0 -37 -123 c-20 -67 -42 -142 -48 -167 -41 -153 -209 -362 -368 -455 -31 -19 -62 -39 -69 -45 -12 -10 -119 -53 -178 -71 -125 -39 -318 -50 -455 -25 -92 17 -242 68 -290 100 -19 12 -55 35 -80 51 -68 43 -199 169 -225 217 -7 13 -40 67 -74 120 -33 53 -65 107 -70 120 -5 13 -41 77 -80 142 -39 66 -71 124 -71 128 0 5 -32 63 -70 128 -39 65 -74 130 -80 144 -5 14 -41 79 -80 146 -38 66 -70 125 -70 130 0 6 -31 61 -70 124 -38 63 -74 126 -80 141 -5 14 -21 42 -35 63 -14 20 -21 39 -17 43 4 3 153 3 332 -2 179 -4 394 -8 478 -8 l152 -1 0 371 0 372 -192 -6 c-106 -4 -410 -8 -675 -9 l-483 -2 -71 119 c-39 66 -77 134 -84 150 -7 17 -45 86 -84 153 -39 68 -71 128 -71 134 0 6 -31 63 -69 127 -38 64 -75 132 -83 151 -8 20 -45 84 -82 143 -36 59 -66 112 -66 117 0 6 -12 28 -26 50 l-27 40 -433 0 -433 0 43 -82z m5432 -5716 c33 -10 101 -41 150 -68 331 -180 475 -569 324 -879 -56 -115 -81 -150 -158 -223 -151 -143 -321 -212 -522 -213 -360 0 -664 251 -737 610 -29 139 9 309 98 436 21 31 39 60 39 65 0 4 38 44 85 88 97 91 218 158 345 192 97 26 282 22 376 -8z"/>
 </g>

</svg>